<!DOCTYPE svg PUBLIC "-//W3C//DTD SVG 1.1//EN" "http://www.w3.org/Graphics/SVG/1.1/DTD/svg11.dtd">
<!-- Uploaded to: SVG Repo, www.svgrepo.com, Transformed by: SVG Repo Mixer Tools -->
<svg fill="#004538" version="1.1" id="Capa_1" xmlns="http://www.w3.org/2000/svg" xmlns:xlink="http://www.w3.org/1999/xlink" width="161px" height="161px" viewBox="0 0 900.108 900.108" xml:space="preserve">
<g id="SVGRepo_bgCarrier" stroke-width="0"/>
<g id="SVGRepo_tracerCarrier" stroke-linecap="round" stroke-linejoin="round"/>
<g id="SVGRepo_iconCarrier"> <g> <g> <path d="M727.557,10.132c-13.199-13.2-34.5-13.6-47.699-0.4l-214.5,214.6l210.3,210.3l214.6-214.5c13.2-13.2,13.101-34.2-0.1-47.4 L727.557,10.132z M694.958,246.632c-11.4,11.4-30,11.4-41.4,0c-11.399-11.4-11.399-30,0-41.4c11.4-11.4,30-11.4,41.4,0 C706.458,216.732,706.458,235.232,694.958,246.632z M773.057,168.632c-11.399,11.4-30,11.4-41.399,0c-11.4-11.4-11.4-30,0-41.4 c11.399-11.4,30-11.4,41.399,0C784.557,138.632,784.557,157.132,773.057,168.632z"/> <path d="M433.158,247.932c-11-11-28-11.2-39-0.2l-0.4,0.4l-147.5,147.5c-12.5,12.5-22.6,34.6-8.5,74.3c3.1,6.3,6,14.101,10.3,22 c15.6,29,40.6,61.3,71.1,91.8c30.399,30.4,63,55.7,91.899,71.2c7.601,4.101,14.7,7.8,22,10.2c7.7,2.9,15,4.9,21.7,6.1 c26.3,4.601,43-4.199,52.101-12.5l149.5-148.699c11-11,10.199-28.601-0.801-39.601L433.158,247.932z M463.958,598.533 c-14.4-4.7-48.8-22.4-92.5-66.101c-43.4-43.399-62.3-78.7-66.3-92.3l108.3-108.3l52.6,52.6l-59.6,59.7 c-14.3,14.3-14.3,37.5,0,51.8s37.5,14.3,51.8,0l59.601-59.6l54.199,54.2L463.958,598.533z"/> <path d="M291.257,611.533c-33-33-60.7-68.9-78-101.301c-4.2-7.8-7.5-15.1-10.8-23L9.857,679.833c-8.2,8.2-11.6,20.1-9,31.399 l30,132.601c2.9,12.7,12.8,22.7,25.5,25.5l132.6,29.899c11.3,2.601,23.1-0.899,31.3-9.1l191.5-191.5c-6.6-3-12.7-5.7-19.2-9.2 C360.158,672.232,324.257,644.533,291.257,611.533z"/> </g> </g> </g>
</svg>