<?xml version="1.0" encoding="UTF-8"?>
<svg xmlns="http://www.w3.org/2000/svg" viewBox="0 0 511.573 511.573" fill="#000000" stroke="#004538">
  <g fill="none" stroke-linecap="round" stroke-linejoin="round">
    <g transform="translate(1 1)" fill="#004538">
      <path d="M465.56,158.147c2.56-1.707,3.413-5.12,2.56-7.68v-0.853C462.147,120.6,445.933,95,422.04,77.08 c-2.56-1.707-5.12-2.56-8.533-0.853c-29.867,10.24-53.76,10.24-72.533-0.853c-29.867-17.92-34.987-60.587-34.987-60.587 c0-3.413-2.56-5.973-5.973-6.827c-29.013-11.947-61.44-11.947-91.307,0c-2.56,0.853-5.12,3.413-5.12,6.827 c0,0-5.12,41.813-34.987,60.587c-18.773,11.947-43.52,11.947-73.387,0.853c-2.56-1.707-5.12-0.853-7.68,0.853 C63.64,95,47.427,120.6,41.453,149.613v0.853c0,2.56,0.853,5.973,2.56,7.68c25.6,25.6,40.107,64,40.107,104.96 c0,40.96-14.507,79.36-40.107,104.96c-2.56,1.707-3.413,5.12-2.56,7.68v0.853c5.973,29.013,22.187,54.613,46.08,72.533 c2.56,1.707,5.12,2.56,7.68,1.707c5.12-1.707,112.64-38.4,151.893,54.613c0.853,3.413,4.267,5.12,7.68,5.12 s6.827-1.707,7.68-5.973c40.107-92.16,147.627-56.32,151.893-54.613c2.56,1.707,5.12,0.853,7.68-0.853 c23.893-17.92,40.107-43.52,46.08-72.533v-0.853c0-2.56-0.853-5.973-2.56-7.68C412.653,315.16,412.653,211.053,465.56,158.147z M415.213,432.067c-22.187-5.973-115.2-27.307-160.427,50.347c-27.307-46.08-71.68-57.173-107.52-57.173 c-23.893,0-44.373,5.12-52.907,7.68c-17.067-14.507-29.867-34.133-34.987-56.32c26.453-28.16,41.813-69.12,41.813-113.493 c0-44.373-15.36-85.333-41.813-114.347c5.12-22.187,17.92-41.813,34.987-56.32c33.28,11.093,61.44,10.24,83.627-3.413 C207.853,70.253,217.24,34.413,219.8,20.76c23.04-7.68,46.933-7.68,69.973,0c2.56,13.653,11.947,49.493,41.813,68.267 c22.187,13.653,50.347,14.507,83.627,3.413c17.92,14.507,29.867,34.133,34.987,56.32c-55.467,59.733-55.467,167.253,0,226.987 C445.08,397.933,433.133,417.56,415.213,432.067z"/>
      <path d="M265.88,420.973c-3.413,3.413-7.68,5.973-11.093,9.387c-3.413-3.413-7.68-6.827-11.093-9.387 c-4.267-2.56-9.387-1.707-11.947,1.707c-2.56,3.413-1.707,9.387,1.707,11.947c5.973,3.413,10.24,7.68,15.36,12.8 c1.707,1.707,3.413,2.56,5.973,2.56s4.267-0.853,5.973-2.56c5.12-4.267,10.24-8.533,15.36-12.8 c3.413-2.56,4.267-8.533,1.707-11.947S269.293,418.413,265.88,420.973z"/>
      <path d="M203.587,400.493c-11.093-4.267-23.893-6.827-36.693-7.68c-5.12,0-8.533,3.413-9.387,7.68 c-0.853,5.12,3.413,8.533,7.68,9.387c11.947,0.853,23.04,3.413,33.28,6.827c0.853,0,1.707,0,2.56,0c3.413,0,6.827-2.56,7.68-5.12 C210.413,406.467,207.853,402.2,203.587,400.493z"/>
      <path d="M122.52,392.813c-5.973,0.853-11.947,1.707-17.067,2.56c-3.413-4.267-5.973-7.68-7.68-11.947 c3.413-4.267,6.827-9.387,10.24-14.507c1.707-4.267,0.853-9.387-3.413-11.947c-4.267-1.707-9.387-0.853-11.947,3.413 c-3.413,5.973-6.827,11.947-11.093,17.067c-1.707,2.56-1.707,5.973-0.853,8.533c3.413,9.387,8.533,17.067,15.36,24.747 c0.853,1.707,3.413,2.56,5.973,2.56c0,0,0.853,0,1.707,0c6.827-1.707,13.653-2.56,20.48-3.413c5.12-0.853,8.533-5.12,7.68-9.387 C131.053,395.373,127.64,391.96,122.52,392.813z"/>
      <path d="M125.933,201.667c-0.853-5.12-5.973-7.68-10.24-5.973c-5.12,0.853-7.68,5.973-5.973,10.24 c3.413,11.093,5.12,23.04,6.827,34.987c0.853,4.267,4.267,7.68,8.533,7.68c0,0,0.853,0,0.853,0.853 c5.12-0.853,8.533-5.12,7.68-9.387C131.907,227.267,129.347,214.467,125.933,201.667z"/>
      <path d="M125.08,277.613c-5.12-0.853-8.533,3.413-9.387,7.68c-0.853,12.8-3.413,24.747-6.827,35.84 c-0.853,4.267,1.707,8.533,5.973,10.24c0.853,0,1.707,0,2.56,0c4.267,0,7.68-2.56,7.68-5.973c3.413-11.947,5.973-25.6,7.68-38.4 C132.76,281.88,129.347,278.467,125.08,277.613z"/>
      <path d="M107.16,157.293c-2.56-5.12-5.973-10.24-9.387-14.507c1.707-4.267,4.267-7.68,6.827-11.093 c5.973,0.853,11.947,1.707,17.067,2.56c4.267,0,8.533-3.413,9.387-7.68c0-4.267-3.413-8.533-8.533-9.387 c-5.973-0.853-12.8-1.707-19.627-3.413c-3.413-0.853-6.827,0-8.533,2.56c-5.973,6.827-11.093,15.36-14.507,23.893 c-1.707,2.56-0.853,5.973,0.853,8.533c4.267,5.12,7.68,11.093,11.093,17.067c1.707,2.56,5.12,4.267,7.68,4.267 c1.707,0,3.413,0,4.267-0.853C108.013,166.68,109.72,161.56,107.16,157.293z"/>
      <path d="M198.467,95c-9.387,7.68-19.627,14.507-31.573,17.92c-4.267,1.707-6.827,6.827-5.12,11.093 c1.707,3.413,5.12,5.973,8.533,5.973c0.853,0,1.707,0,1.707,0c13.653-5.12,26.453-11.947,37.547-22.187 c3.413-3.413,4.267-8.533,0.853-11.947C207,92.44,201.88,91.587,198.467,95z"/>
      <path d="M276.12,40.387c-0.853-3.413-3.413-5.12-6.827-5.973c-9.387-1.707-19.627-1.707-29.867,0 c-3.413,0.853-5.973,2.56-6.827,5.973c-1.707,6.827-4.267,12.8-6.827,18.773c-1.707,4.267,0,9.387,4.267,11.093 c0.853,0.853,2.56,0.853,3.413,0.853c3.413,0,5.973-1.707,5.973-5.12c2.56-5.12,5.12-11.093,6.827-16.213 c5.12-0.853,9.387-0.853,14.507,0c2.56,5.973,4.267,11.093,6.827,16.213c1.707,4.267,6.827,5.973,11.093,4.267 s5.973-6.827,4.267-11.093C280.387,53.187,277.827,47.213,276.12,40.387z"/>
      <path d="M339.267,129.987c3.413,0,6.827-2.56,7.68-5.973c1.707-5.12-0.853-9.387-5.12-11.093 c-11.947-3.413-22.187-9.387-31.573-17.92c-3.413-2.56-8.533-2.56-11.947,0.853c-2.56,3.413-2.56,8.533,0.853,11.947 c11.093,10.24,23.893,17.92,37.547,22.187C337.56,129.987,338.413,129.987,339.267,129.987z"/>
      <path d="M387.907,134.253c5.973,0,11.093-1.707,17.067-2.56c2.56,3.413,5.12,6.827,6.827,11.093 c-3.413,4.267-6.827,9.387-9.387,14.507c-1.707,4.267-0.853,9.387,3.413,11.947c1.707,0.853,2.56,0.853,4.267,0.853 c2.56,0,5.12-1.707,6.827-4.267c3.413-5.973,6.827-11.947,11.093-17.067c1.707-2.56,1.707-5.973,0.853-8.533 c-3.413-8.533-8.533-17.067-14.507-23.893c-2.56-2.56-5.12-3.413-8.533-2.56c-6.827,1.707-12.8,2.56-19.627,3.413 c-5.12,0.853-8.533,5.12-7.68,9.387C379.373,131.693,382.787,135.107,387.907,134.253z"/>
      <path d="M383.64,248.6h0.853c4.267,0,7.68-2.56,8.533-7.68c0.853-12.8,3.413-24.747,6.827-35.84 c0.853-4.267-1.707-9.387-5.973-10.24s-8.533,1.707-10.24,5.973c-3.413,11.947-5.973,25.6-7.68,38.4 C375.96,243.48,379.373,247.747,383.64,248.6z"/>
      <path d="M392.173,331.373c0.853,0,1.707,0,1.707,0c5.12-0.853,7.68-5.973,5.973-10.24c-3.413-11.947-5.12-23.893-6.827-35.84 c-0.853-5.12-4.267-8.533-9.387-7.68c-5.12,0.853-8.533,5.12-7.68,9.387c1.707,12.8,4.267,25.6,7.68,38.4 C385.347,328.813,388.76,331.373,392.173,331.373z"/>
      <path d="M402.413,368.92c2.56,5.12,5.973,10.24,9.387,14.507c-2.56,4.267-5.12,8.533-7.68,11.947 c-5.973-0.853-11.093-1.707-17.067-2.56c-5.12,0-8.533,3.413-9.387,7.68c0,4.267,3.413,8.533,7.68,9.387 c6.827,0.853,13.653,1.707,20.48,3.413c0.853,0,0.853,0,1.707,0c2.56,0,5.12-0.853,6.827-2.56 c6.827-7.68,11.947-15.36,15.36-24.747c1.707-2.56,0.853-5.973-0.853-8.533c-4.267-5.12-7.68-11.093-11.093-17.067 c-2.56-4.267-7.68-5.973-11.947-3.413S399.853,364.653,402.413,368.92z"/>
      <path d="M342.68,391.96c-12.8,1.707-24.747,4.267-36.693,7.68c-4.267,1.707-6.827,6.827-5.12,11.093 c1.707,3.413,5.12,5.973,8.533,5.973c0.853,0,1.707-0.853,1.707-0.853c10.24-3.413,21.333-5.973,33.28-6.827 c5.12-0.853,8.533-5.12,7.68-9.387C351.213,394.52,347.8,391.96,342.68,391.96z"/>
    </g>
  </g>
</svg>
