<!DOCTYPE svg PUBLIC "-//W3C//DTD SVG 1.1//EN" "http://www.w3.org/Graphics/SVG/1.1/DTD/svg11.dtd">
<!-- Uploaded to: SVG Repo, www.svgrepo.com, Transformed by: SVG Repo Mixer Tools -->
<svg width="140px" height="140px" viewBox="0 0 32 32" id="object" xmlns="http://www.w3.org/2000/svg" fill="#000000">
<g id="SVGRepo_bgCarrier" stroke-width="0"/>
<g id="SVGRepo_tracerCarrier" stroke-linecap="round" stroke-linejoin="round"/>
<g id="SVGRepo_iconCarrier">
<defs>
<style>.cls-1{fill:#53360e;}.cls-2{fill:#004538;}.cls-3{fill:#eef5fd;}.cls-4{fill:#503c10;}</style>
</defs>
<title/>
<path class="cls-1" d="M8,2H8a6,6,0,0,1,6,6v8a0,0,0,0,1,0,0H2a0,0,0,0,1,0,0V8A6,6,0,0,1,8,2Z"/>
<path class="cls-2" d="M14,17H2a1,1,0,0,1-1-1V8A7,7,0,0,1,15,8v8A1,1,0,0,1,14,17ZM3,15H13V8A5,5,0,0,0,3,8Z"/>
<path class="cls-3" d="M4,16h8a0,0,0,0,1,0,0V26a4,4,0,0,1-4,4H8a4,4,0,0,1-4-4V16A0,0,0,0,1,4,16Z"/>
<path class="cls-2" d="M8,31a5,5,0,0,1-5-5V16a1,1,0,0,1,1-1h8a1,1,0,0,1,1,1V26A5,5,0,0,1,8,31ZM5,17v9a3,3,0,0,0,6,0V17Z"/>
<rect class="cls-4" height="4" width="12" x="2" y="12"/>
<path class="cls-2" d="M14,17H2a1,1,0,0,1-1-1V12a1,1,0,0,1,1-1H14a1,1,0,0,1,1,1v4A1,1,0,0,1,14,17ZM3,15H13V13H3Z"/>
<path class="cls-1" d="M24,2h0a6,6,0,0,1,6,6v8a0,0,0,0,1,0,0H18a0,0,0,0,1,0,0V8A6,6,0,0,1,24,2Z"/>
<path class="cls-2" d="M30,17H18a1,1,0,0,1-1-1V8A7,7,0,0,1,31,8v8A1,1,0,0,1,30,17ZM19,15H29V8A5,5,0,0,0,19,8Z"/>
<path class="cls-3" d="M20,16h8a0,0,0,0,1,0,0V26a4,4,0,0,1-4,4h0a4,4,0,0,1-4-4V16A0,0,0,0,1,20,16Z"/>
<path class="cls-2" d="M24,31a5,5,0,0,1-5-5V16a1,1,0,0,1,1-1h8a1,1,0,0,1,1,1V26A5,5,0,0,1,24,31ZM21,17v9a3,3,0,0,0,6,0V17Z"/>
<rect class="cls-4" height="4" width="12" x="18" y="12"/>
<path class="cls-2" d="M30,17H18a1,1,0,0,1-1-1V12a1,1,0,0,1,1-1H30a1,1,0,0,1,1,1v4A1,1,0,0,1,30,17ZM19,15H29V13H19Z"/>
</g>
</svg>